<svg xmlns="http://www.w3.org/2000/svg" xmlns:dc="http://purl.org/dc/elements/1.1/" xmlns:ns2="http://creativecommons.org/ns#" xmlns:rdf="http://www.w3.org/1999/02/22-rdf-syntax-ns#" xmlns:xlink="http://www.w3.org/1999/xlink" width="403.0" height="237.0" viewBox="0.0 0.0 403.0 237.0">
<g id="graph0" class="graph" transform="scale(1.0 1.0) rotate(0) translate(4 233)">
<title>G</title>
<polygon fill="white" stroke="transparent" points="-4,4 -4,-233 399,-233 399,4 -4,4" />
<g id="clust8" class="cluster">
<title>cluster_legend</title>
</g>

<g id="node1" class="node">
<title>node2</title>
<text text-anchor="start" x="42" y="-104.4" font-family="Helvetica,sans-Serif" font-size="12.00" fill="#444443">SE1@1.50</text>
</g>

<g id="node2" class="node">
<title>node5</title>
<text text-anchor="start" x="123" y="-104.4" font-family="Helvetica,sans-Serif" font-size="12.00" fill="#444443">SE1@2.50</text>
</g>


<g id="node8" class="node">
<title>leaf3</title>
<polygon fill="none" stroke="#444443" stroke-width="0" points="31,-64.5 0,-64.5 0,-19.5 31,-19.5 31,-64.5" />
<svg height="37px" version="1.1" viewBox="0 0 30.184 49.141329" width="23px" preserveAspectRatio="xMinYMin meet" x="4.5" y="-60">
 <metadata>
  <rdf:RDF>
   <ns2:Work>
    <dc:type rdf:resource="http://purl.org/dc/dcmitype/StillImage" />
    <dc:date>2022-04-20T09:08:43.248141</dc:date>
    <dc:format>image/svg+xml</dc:format>
    <dc:creator>
     <ns2:Agent>
      <dc:title>Matplotlib v3.4.2, https://matplotlib.org/</dc:title>
     </ns2:Agent>
    </dc:creator>
   </ns2:Work>
  </rdf:RDF>
 </metadata>
 <defs>
  <style type="text/css">*{stroke-linecap:butt;stroke-linejoin:round;}</style>
 </defs>
 <g id="figure_1">
  <g id="patch_1">
   <path d="M 0 49.141329  L 30.184 49.141329  L 30.184 0  L 0 0  z " style="fill:#ffffff;" />
  </g>
  <g id="axes_1">
   <g id="patch_2">
    <path d="M 30.184 15.092  C 30.184 12.442998 29.486556 9.840103 28.162055 7.546  C 26.837554 5.251897 24.932103 3.346445 22.638 2.021944  C 20.343896 0.697443 17.741001 -0 15.091999 0  C 12.442997 0 9.840102 0.697444 7.545999 2.021945  C 5.251896 3.346446 3.346445 5.251898 2.021944 7.546001  C 0.697443 9.840104 -0 12.442999 0 15.092001  C 0 17.741004 0.697444 20.343898 2.021945 22.638001  C 3.346447 24.932104 5.251898 26.837556 7.546002 28.162056  L 15.092 15.092  L 30.184 15.092  z " style="fill:#fefebb;stroke:#444443;stroke-linejoin:miter;stroke-width:0.5;" />
   </g>
   <g id="patch_3">
    <path d="M 7.546002 28.162056  C 9.840105 29.486557 12.443 30.184 15.092002 30.184  C 17.741004 30.184 20.343899 29.486556 22.638002 28.162054  C 24.932105 26.837553 26.837556 24.932101 28.162057 22.637998  C 29.486557 20.343894 30.184 17.740999 30.184 15.091997  L 15.092 15.092  L 7.546002 28.162056  z " style="fill:#a1dab4;stroke:#444443;stroke-linejoin:miter;stroke-width:0.5;" />
   </g>
   <g id="text_1">
    
    <g style="fill:#444443;" transform="translate(4.956453 37.833391)scale(0.09 -0.09)">
     <defs>
      <path d="M 422 0  L 422 3319  L 928 3319  L 928 2847  Q 1294 3394 1984 3394  Q 2284 3394 2536 3286  Q 2788 3178 2913 3003  Q 3038 2828 3088 2588  Q 3119 2431 3119 2041  L 3119 0  L 2556 0  L 2556 2019  Q 2556 2363 2490 2533  Q 2425 2703 2258 2804  Q 2091 2906 1866 2906  Q 1506 2906 1245 2678  Q 984 2450 984 1813  L 984 0  L 422 0  z " id="ArialMT-6e" transform="scale(0.015625)" />
      <path d="M 3381 2694  L 356 2694  L 356 3219  L 3381 3219  L 3381 2694  z M 3381 1303  L 356 1303  L 356 1828  L 3381 1828  L 3381 1303  z " id="ArialMT-3d" transform="scale(0.015625)" />
      <path d="M 2384 0  L 1822 0  L 1822 3584  Q 1619 3391 1289 3197  Q 959 3003 697 2906  L 697 3450  Q 1169 3672 1522 3987  Q 1875 4303 2022 4600  L 2384 4600  L 2384 0  z " id="ArialMT-31" transform="scale(0.015625)" />
      <path d="M 303 3981  L 303 4522  L 3269 4522  L 3269 4084  Q 2831 3619 2401 2847  Q 1972 2075 1738 1259  Q 1569 684 1522 0  L 944 0  Q 953 541 1156 1306  Q 1359 2072 1739 2783  Q 2119 3494 2547 3981  L 303 3981  z " id="ArialMT-37" transform="scale(0.015625)" />
     </defs>
     <use xlink:href="#ArialMT-6e" />
     <use x="55.615234" xlink:href="#ArialMT-3d" />
     <use x="114.013672" xlink:href="#ArialMT-31" />
     <use x="169.628906" xlink:href="#ArialMT-37" />
    </g>
    
    <g style="fill:#444443;" transform="translate(0.088016 47.352579)scale(0.09 -0.09)">
     <defs>
      <path d="M 525 0  L 525 4581  L 3616 4581  L 3616 4041  L 1131 4041  L 1131 2622  L 3281 2622  L 3281 2081  L 1131 2081  L 1131 0  L 525 0  z " id="ArialMT-46" transform="scale(0.015625)" />
      <path d="M 2694 1069  L 3275 997  Q 3138 488 2766 206  Q 2394 -75 1816 -75  Q 1088 -75 661 373  Q 234 822 234 1631  Q 234 2469 665 2931  Q 1097 3394 1784 3394  Q 2450 3394 2872 2941  Q 3294 2488 3294 1666  Q 3294 1616 3291 1516  L 816 1516  Q 847 969 1125 678  Q 1403 388 1819 388  Q 2128 388 2347 550  Q 2566 713 2694 1069  z M 847 1978  L 2700 1978  Q 2663 2397 2488 2606  Q 2219 2931 1791 2931  Q 1403 2931 1139 2672  Q 875 2413 847 1978  z " id="ArialMT-65" transform="scale(0.015625)" />
      <path d="M 422 0  L 422 3319  L 925 3319  L 925 2853  Q 1081 3097 1340 3245  Q 1600 3394 1931 3394  Q 2300 3394 2536 3241  Q 2772 3088 2869 2813  Q 3263 3394 3894 3394  Q 4388 3394 4653 3120  Q 4919 2847 4919 2278  L 4919 0  L 4359 0  L 4359 2091  Q 4359 2428 4304 2576  Q 4250 2725 4106 2815  Q 3963 2906 3769 2906  Q 3419 2906 3187 2673  Q 2956 2441 2956 1928  L 2956 0  L 2394 0  L 2394 2156  Q 2394 2531 2256 2718  Q 2119 2906 1806 2906  Q 1569 2906 1367 2781  Q 1166 2656 1075 2415  Q 984 2175 984 1722  L 984 0  L 422 0  z " id="ArialMT-6d" transform="scale(0.015625)" />
      <path d="M 2588 409  Q 2275 144 1986 34  Q 1697 -75 1366 -75  Q 819 -75 525 192  Q 231 459 231 875  Q 231 1119 342 1320  Q 453 1522 633 1644  Q 813 1766 1038 1828  Q 1203 1872 1538 1913  Q 2219 1994 2541 2106  Q 2544 2222 2544 2253  Q 2544 2597 2384 2738  Q 2169 2928 1744 2928  Q 1347 2928 1158 2789  Q 969 2650 878 2297  L 328 2372  Q 403 2725 575 2942  Q 747 3159 1072 3276  Q 1397 3394 1825 3394  Q 2250 3394 2515 3294  Q 2781 3194 2906 3042  Q 3031 2891 3081 2659  Q 3109 2516 3109 2141  L 3109 1391  Q 3109 606 3145 398  Q 3181 191 3288 0  L 2700 0  Q 2613 175 2588 409  z M 2541 1666  Q 2234 1541 1622 1453  Q 1275 1403 1131 1340  Q 988 1278 909 1158  Q 831 1038 831 891  Q 831 666 1001 516  Q 1172 366 1500 366  Q 1825 366 2078 508  Q 2331 650 2450 897  Q 2541 1088 2541 1459  L 2541 1666  z " id="ArialMT-61" transform="scale(0.015625)" />
      <path d="M 409 0  L 409 4581  L 972 4581  L 972 0  L 409 0  z " id="ArialMT-6c" transform="scale(0.015625)" />
     </defs>
     <use xlink:href="#ArialMT-46" />
     <use x="61.083984" xlink:href="#ArialMT-65" />
     <use x="116.699219" xlink:href="#ArialMT-6d" />
     <use x="200" xlink:href="#ArialMT-61" />
     <use x="255.615234" xlink:href="#ArialMT-6c" />
     <use x="277.832031" xlink:href="#ArialMT-65" />
    </g>
   </g>
  </g>
 </g>
</svg></g>

<g id="edge1" class="edge">
<title>node2-&gt;leaf3</title>
<path fill="none" stroke="#444443" stroke-width="0.3" d="M66.33,-100.64C59.04,-92.38 45.37,-76.87 34.04,-64.02" />
<polygon fill="#444443" stroke="#444443" stroke-width="0.3" points="34.91,-62.89 31.21,-60.81 32.81,-64.74 34.91,-62.89" />
</g>

<g id="node9" class="node">
<title>leaf4</title>
<polygon fill="none" stroke="#444443" stroke-width="0" points="80.5,-67 44.5,-67 44.5,-17 80.5,-17 80.5,-67" />
<svg height="42px" version="1.1" viewBox="0 0 37.575932 56.829009" width="28px" preserveAspectRatio="xMinYMin meet" x="48.5" y="-63">
 <metadata>
  <rdf:RDF>
   <ns2:Work>
    <dc:type rdf:resource="http://purl.org/dc/dcmitype/StillImage" />
    <dc:date>2022-04-20T09:08:43.358443</dc:date>
    <dc:format>image/svg+xml</dc:format>
    <dc:creator>
     <ns2:Agent>
      <dc:title>Matplotlib v3.4.2, https://matplotlib.org/</dc:title>
     </ns2:Agent>
    </dc:creator>
   </ns2:Work>
  </rdf:RDF>
 </metadata>
 <defs>
  <style type="text/css">*{stroke-linecap:butt;stroke-linejoin:round;}</style>
 </defs>
 <g id="figure_1">
  <g id="patch_1">
   <path d="M -0 56.829009  L 37.575932 56.829009  L 37.575932 0  L -0 0  z " style="fill:#ffffff;" />
  </g>
  <g id="axes_1">
   <g id="patch_2">
    <path d="M 37.575932 18.788  C 37.575932 13.807024 35.595137 9.02496 32.073054 5.502878  C 28.550972 1.980796 23.768909 -0 18.787932 -0  L 18.787932 18.788  L 37.575932 18.788  z " style="fill:#fefebb;stroke:#444443;stroke-linejoin:miter;stroke-width:0.5;" />
   </g>
   <g id="patch_3">
    <path d="M 18.787932 -0  C 15.072462 -0 11.43918 1.102144 8.349879 3.166349  C 5.260578 5.230554 2.851933 8.165496 1.430083 11.598144  C 0.008234 15.030791 -0.363914 18.809278 0.360938 22.453357  C 1.085791 26.097436 2.875575 29.445888 5.50281 32.073122  C 8.130044 34.700357 11.478496 36.490141 15.122575 37.214994  C 18.766654 37.939846 22.545141 37.567698 25.977788 36.145849  C 29.410436 34.724 32.345378 32.315354 34.409583 29.226054  C 36.473788 26.136753 37.575932 22.503471 37.575932 18.788  L 18.787932 18.788  L 18.787932 -0  z " style="fill:#a1dab4;stroke:#444443;stroke-linejoin:miter;stroke-width:0.5;" />
   </g>
   <g id="text_1">
    
    <g style="fill:#444443;" transform="translate(8.652385 45.521071)scale(0.09 -0.09)">
     <defs>
      <path d="M 422 0  L 422 3319  L 928 3319  L 928 2847  Q 1294 3394 1984 3394  Q 2284 3394 2536 3286  Q 2788 3178 2913 3003  Q 3038 2828 3088 2588  Q 3119 2431 3119 2041  L 3119 0  L 2556 0  L 2556 2019  Q 2556 2363 2490 2533  Q 2425 2703 2258 2804  Q 2091 2906 1866 2906  Q 1506 2906 1245 2678  Q 984 2450 984 1813  L 984 0  L 422 0  z " id="ArialMT-6e" transform="scale(0.015625)" />
      <path d="M 3381 2694  L 356 2694  L 356 3219  L 3381 3219  L 3381 2694  z M 3381 1303  L 356 1303  L 356 1828  L 3381 1828  L 3381 1303  z " id="ArialMT-3d" transform="scale(0.015625)" />
      <path d="M 3222 541  L 3222 0  L 194 0  Q 188 203 259 391  Q 375 700 629 1000  Q 884 1300 1366 1694  Q 2113 2306 2375 2664  Q 2638 3022 2638 3341  Q 2638 3675 2398 3904  Q 2159 4134 1775 4134  Q 1369 4134 1125 3890  Q 881 3647 878 3216  L 300 3275  Q 359 3922 746 4261  Q 1134 4600 1788 4600  Q 2447 4600 2831 4234  Q 3216 3869 3216 3328  Q 3216 3053 3103 2787  Q 2991 2522 2730 2228  Q 2469 1934 1863 1422  Q 1356 997 1212 845  Q 1069 694 975 541  L 3222 541  z " id="ArialMT-32" transform="scale(0.015625)" />
      <path d="M 269 1209  L 831 1284  Q 928 806 1161 595  Q 1394 384 1728 384  Q 2125 384 2398 659  Q 2672 934 2672 1341  Q 2672 1728 2419 1979  Q 2166 2231 1775 2231  Q 1616 2231 1378 2169  L 1441 2663  Q 1497 2656 1531 2656  Q 1891 2656 2178 2843  Q 2466 3031 2466 3422  Q 2466 3731 2256 3934  Q 2047 4138 1716 4138  Q 1388 4138 1169 3931  Q 950 3725 888 3313  L 325 3413  Q 428 3978 793 4289  Q 1159 4600 1703 4600  Q 2078 4600 2393 4439  Q 2709 4278 2876 4000  Q 3044 3722 3044 3409  Q 3044 3113 2884 2869  Q 2725 2625 2413 2481  Q 2819 2388 3044 2092  Q 3269 1797 3269 1353  Q 3269 753 2831 336  Q 2394 -81 1725 -81  Q 1122 -81 723 278  Q 325 638 269 1209  z " id="ArialMT-33" transform="scale(0.015625)" />
     </defs>
     <use xlink:href="#ArialMT-6e" />
     <use x="55.615234" xlink:href="#ArialMT-3d" />
     <use x="114.013672" xlink:href="#ArialMT-32" />
     <use x="169.628906" xlink:href="#ArialMT-33" />
    </g>
    
    <g style="fill:#444443;" transform="translate(9.034885 55.040259)scale(0.09 -0.09)">
     <defs>
      <path d="M 475 0  L 475 4581  L 1388 4581  L 2472 1338  Q 2622 884 2691 659  Q 2769 909 2934 1394  L 4031 4581  L 4847 4581  L 4847 0  L 4263 0  L 4263 3834  L 2931 0  L 2384 0  L 1059 3900  L 1059 0  L 475 0  z " id="ArialMT-4d" transform="scale(0.015625)" />
      <path d="M 2588 409  Q 2275 144 1986 34  Q 1697 -75 1366 -75  Q 819 -75 525 192  Q 231 459 231 875  Q 231 1119 342 1320  Q 453 1522 633 1644  Q 813 1766 1038 1828  Q 1203 1872 1538 1913  Q 2219 1994 2541 2106  Q 2544 2222 2544 2253  Q 2544 2597 2384 2738  Q 2169 2928 1744 2928  Q 1347 2928 1158 2789  Q 969 2650 878 2297  L 328 2372  Q 403 2725 575 2942  Q 747 3159 1072 3276  Q 1397 3394 1825 3394  Q 2250 3394 2515 3294  Q 2781 3194 2906 3042  Q 3031 2891 3081 2659  Q 3109 2516 3109 2141  L 3109 1391  Q 3109 606 3145 398  Q 3181 191 3288 0  L 2700 0  Q 2613 175 2588 409  z M 2541 1666  Q 2234 1541 1622 1453  Q 1275 1403 1131 1340  Q 988 1278 909 1158  Q 831 1038 831 891  Q 831 666 1001 516  Q 1172 366 1500 366  Q 1825 366 2078 508  Q 2331 650 2450 897  Q 2541 1088 2541 1459  L 2541 1666  z " id="ArialMT-61" transform="scale(0.015625)" />
      <path d="M 409 0  L 409 4581  L 972 4581  L 972 0  L 409 0  z " id="ArialMT-6c" transform="scale(0.015625)" />
      <path d="M 2694 1069  L 3275 997  Q 3138 488 2766 206  Q 2394 -75 1816 -75  Q 1088 -75 661 373  Q 234 822 234 1631  Q 234 2469 665 2931  Q 1097 3394 1784 3394  Q 2450 3394 2872 2941  Q 3294 2488 3294 1666  Q 3294 1616 3291 1516  L 816 1516  Q 847 969 1125 678  Q 1403 388 1819 388  Q 2128 388 2347 550  Q 2566 713 2694 1069  z M 847 1978  L 2700 1978  Q 2663 2397 2488 2606  Q 2219 2931 1791 2931  Q 1403 2931 1139 2672  Q 875 2413 847 1978  z " id="ArialMT-65" transform="scale(0.015625)" />
     </defs>
     <use xlink:href="#ArialMT-4d" />
     <use x="83.300781" xlink:href="#ArialMT-61" />
     <use x="138.916016" xlink:href="#ArialMT-6c" />
     <use x="161.132812" xlink:href="#ArialMT-65" />
    </g>
   </g>
  </g>
 </g>
</svg></g>

<g id="edge2" class="edge">
<title>node2-&gt;leaf4</title>
<path fill="none" stroke="#444443" stroke-width="0.3" d="M70.67,-100.64C69.71,-93.86 68.06,-82.2 66.49,-71.14" />
<polygon fill="#444443" stroke="#444443" stroke-width="0.3" points="67.86,-70.86 65.92,-67.1 65.09,-71.25 67.86,-70.86" />
</g>

<g id="node10" class="node">
<title>leaf6</title>
<polygon fill="none" stroke="#444443" stroke-width="0" points="121,-65.5 88,-65.5 88,-18.5 121,-18.5 121,-65.5" />
<svg height="39px" version="1.1" viewBox="0 0 33.879997 52.985167" width="25px" preserveAspectRatio="xMinYMin meet" x="92.5" y="-61">
 <metadata>
  <rdf:RDF>
   <ns2:Work>
    <dc:type rdf:resource="http://purl.org/dc/dcmitype/StillImage" />
    <dc:date>2022-04-20T09:08:43.475763</dc:date>
    <dc:format>image/svg+xml</dc:format>
    <dc:creator>
     <ns2:Agent>
      <dc:title>Matplotlib v3.4.2, https://matplotlib.org/</dc:title>
     </ns2:Agent>
    </dc:creator>
   </ns2:Work>
  </rdf:RDF>
 </metadata>
 <defs>
  <style type="text/css">*{stroke-linecap:butt;stroke-linejoin:round;}</style>
 </defs>
 <g id="figure_1">
  <g id="patch_1">
   <path d="M 0 52.985167  L 33.879997 52.985167  L 33.879997 -0  L 0 -0  z " style="fill:#ffffff;" />
  </g>
  <g id="axes_1">
   <g id="patch_2">
    <path d="M 33.879997 16.939999  C 33.879997 15.059397 33.566834 13.191856 32.953376 11.414123  C 32.339919 9.636391 31.434688 7.973159 30.274885 6.492781  C 29.115083 5.012402 27.716817 3.735438 26.137553 2.714368  C 24.558288 1.693297 22.819959 0.942302 20.994004 0.492244  C 19.16805 0.042187 17.279831 -0.100681 15.406946 0.069511  C 13.534061 0.239703 11.702524 0.720592 9.987604 1.492415  C 8.272684 2.264238 6.698199 3.316275 5.328856 4.605291  C 3.959513 5.894307 2.814331 7.402399 1.940372 9.067589  C 1.066413 10.732778 0.475816 12.531939 0.192852 14.39113  C -0.090112 16.250322 -0.061512 18.143722 0.277476 19.99352  C 0.616464 21.843317 1.261132 23.623818 2.184986 25.261852  C 3.10884 26.899886 4.29905 28.372702 5.7067 29.619771  C 7.11435 30.866841 8.719891 31.870843 10.457341 32.590518  C 12.19479 33.310193 14.040016 33.735545 15.917186 33.849093  C 17.794357 33.96264 19.6774 33.762807 21.488928 33.257806  C 23.300456 32.752804 25.01531 31.949648 26.563015 30.881345  L 16.939997 16.939999  L 33.879997 16.939999  z " style="fill:#fefebb;stroke:#444443;stroke-linejoin:miter;stroke-width:0.5;" />
   </g>
   <g id="patch_3">
    <path d="M 26.563015 30.881345  C 28.819941 29.323501 30.66518 27.240656 31.939623 24.812408  C 33.214066 22.38416 33.879998 19.682367 33.879997 16.939997  L 16.939997 16.939999  L 26.563015 30.881345  z " style="fill:#a1dab4;stroke:#444443;stroke-linejoin:miter;stroke-width:0.5;" />
   </g>
   <g id="text_1">
    
    <g style="fill:#444443;" transform="translate(6.80445 41.67723)scale(0.09 -0.09)">
     <defs>
      <path d="M 422 0  L 422 3319  L 928 3319  L 928 2847  Q 1294 3394 1984 3394  Q 2284 3394 2536 3286  Q 2788 3178 2913 3003  Q 3038 2828 3088 2588  Q 3119 2431 3119 2041  L 3119 0  L 2556 0  L 2556 2019  Q 2556 2363 2490 2533  Q 2425 2703 2258 2804  Q 2091 2906 1866 2906  Q 1506 2906 1245 2678  Q 984 2450 984 1813  L 984 0  L 422 0  z " id="ArialMT-6e" transform="scale(0.015625)" />
      <path d="M 3381 2694  L 356 2694  L 356 3219  L 3381 3219  L 3381 2694  z M 3381 1303  L 356 1303  L 356 1828  L 3381 1828  L 3381 1303  z " id="ArialMT-3d" transform="scale(0.015625)" />
      <path d="M 3222 541  L 3222 0  L 194 0  Q 188 203 259 391  Q 375 700 629 1000  Q 884 1300 1366 1694  Q 2113 2306 2375 2664  Q 2638 3022 2638 3341  Q 2638 3675 2398 3904  Q 2159 4134 1775 4134  Q 1369 4134 1125 3890  Q 881 3647 878 3216  L 300 3275  Q 359 3922 746 4261  Q 1134 4600 1788 4600  Q 2447 4600 2831 4234  Q 3216 3869 3216 3328  Q 3216 3053 3103 2787  Q 2991 2522 2730 2228  Q 2469 1934 1863 1422  Q 1356 997 1212 845  Q 1069 694 975 541  L 3222 541  z " id="ArialMT-32" transform="scale(0.015625)" />
      <path d="M 266 2259  Q 266 3072 433 3567  Q 600 4063 929 4331  Q 1259 4600 1759 4600  Q 2128 4600 2406 4451  Q 2684 4303 2865 4023  Q 3047 3744 3150 3342  Q 3253 2941 3253 2259  Q 3253 1453 3087 958  Q 2922 463 2592 192  Q 2263 -78 1759 -78  Q 1097 -78 719 397  Q 266 969 266 2259  z M 844 2259  Q 844 1131 1108 757  Q 1372 384 1759 384  Q 2147 384 2411 759  Q 2675 1134 2675 2259  Q 2675 3391 2411 3762  Q 2147 4134 1753 4134  Q 1366 4134 1134 3806  Q 844 3388 844 2259  z " id="ArialMT-30" transform="scale(0.015625)" />
     </defs>
     <use xlink:href="#ArialMT-6e" />
     <use x="55.615234" xlink:href="#ArialMT-3d" />
     <use x="114.013672" xlink:href="#ArialMT-32" />
     <use x="169.628906" xlink:href="#ArialMT-30" />
    </g>
    
    <g style="fill:#444443;" transform="translate(1.936013 51.196417)scale(0.09 -0.09)">
     <defs>
      <path d="M 525 0  L 525 4581  L 3616 4581  L 3616 4041  L 1131 4041  L 1131 2622  L 3281 2622  L 3281 2081  L 1131 2081  L 1131 0  L 525 0  z " id="ArialMT-46" transform="scale(0.015625)" />
      <path d="M 2694 1069  L 3275 997  Q 3138 488 2766 206  Q 2394 -75 1816 -75  Q 1088 -75 661 373  Q 234 822 234 1631  Q 234 2469 665 2931  Q 1097 3394 1784 3394  Q 2450 3394 2872 2941  Q 3294 2488 3294 1666  Q 3294 1616 3291 1516  L 816 1516  Q 847 969 1125 678  Q 1403 388 1819 388  Q 2128 388 2347 550  Q 2566 713 2694 1069  z M 847 1978  L 2700 1978  Q 2663 2397 2488 2606  Q 2219 2931 1791 2931  Q 1403 2931 1139 2672  Q 875 2413 847 1978  z " id="ArialMT-65" transform="scale(0.015625)" />
      <path d="M 422 0  L 422 3319  L 925 3319  L 925 2853  Q 1081 3097 1340 3245  Q 1600 3394 1931 3394  Q 2300 3394 2536 3241  Q 2772 3088 2869 2813  Q 3263 3394 3894 3394  Q 4388 3394 4653 3120  Q 4919 2847 4919 2278  L 4919 0  L 4359 0  L 4359 2091  Q 4359 2428 4304 2576  Q 4250 2725 4106 2815  Q 3963 2906 3769 2906  Q 3419 2906 3187 2673  Q 2956 2441 2956 1928  L 2956 0  L 2394 0  L 2394 2156  Q 2394 2531 2256 2718  Q 2119 2906 1806 2906  Q 1569 2906 1367 2781  Q 1166 2656 1075 2415  Q 984 2175 984 1722  L 984 0  L 422 0  z " id="ArialMT-6d" transform="scale(0.015625)" />
      <path d="M 2588 409  Q 2275 144 1986 34  Q 1697 -75 1366 -75  Q 819 -75 525 192  Q 231 459 231 875  Q 231 1119 342 1320  Q 453 1522 633 1644  Q 813 1766 1038 1828  Q 1203 1872 1538 1913  Q 2219 1994 2541 2106  Q 2544 2222 2544 2253  Q 2544 2597 2384 2738  Q 2169 2928 1744 2928  Q 1347 2928 1158 2789  Q 969 2650 878 2297  L 328 2372  Q 403 2725 575 2942  Q 747 3159 1072 3276  Q 1397 3394 1825 3394  Q 2250 3394 2515 3294  Q 2781 3194 2906 3042  Q 3031 2891 3081 2659  Q 3109 2516 3109 2141  L 3109 1391  Q 3109 606 3145 398  Q 3181 191 3288 0  L 2700 0  Q 2613 175 2588 409  z M 2541 1666  Q 2234 1541 1622 1453  Q 1275 1403 1131 1340  Q 988 1278 909 1158  Q 831 1038 831 891  Q 831 666 1001 516  Q 1172 366 1500 366  Q 1825 366 2078 508  Q 2331 650 2450 897  Q 2541 1088 2541 1459  L 2541 1666  z " id="ArialMT-61" transform="scale(0.015625)" />
      <path d="M 409 0  L 409 4581  L 972 4581  L 972 0  L 409 0  z " id="ArialMT-6c" transform="scale(0.015625)" />
     </defs>
     <use xlink:href="#ArialMT-46" />
     <use x="61.083984" xlink:href="#ArialMT-65" />
     <use x="116.699219" xlink:href="#ArialMT-6d" />
     <use x="200" xlink:href="#ArialMT-61" />
     <use x="255.615234" xlink:href="#ArialMT-6c" />
     <use x="277.832031" xlink:href="#ArialMT-65" />
    </g>
   </g>
  </g>
 </g>
</svg></g>

<g id="edge4" class="edge">
<title>node5-&gt;leaf6</title>
<path fill="none" stroke="#444443" stroke-width="0.3" d="M148.07,-100.64C142.51,-93.29 132.62,-80.2 123.67,-68.36" />
<polygon fill="#444443" stroke="#444443" stroke-width="0.3" points="124.7,-67.4 121.17,-65.05 122.47,-69.09 124.7,-67.4" />
</g>

<g id="node11" class="node">
<title>leaf7</title>
<polygon fill="none" stroke="#444443" stroke-width="0" points="202.5,-84 134.5,-84 134.5,0 202.5,0 202.5,-84" />
<svg height="76px" version="1.1" viewBox="0 0 80.079981 101.033146" width="60px" preserveAspectRatio="xMinYMin meet" x="138.5" y="-80">
 <metadata>
  <rdf:RDF>
   <ns2:Work>
    <dc:type rdf:resource="http://purl.org/dc/dcmitype/StillImage" />
    <dc:date>2022-04-20T09:08:43.586682</dc:date>
    <dc:format>image/svg+xml</dc:format>
    <dc:creator>
     <ns2:Agent>
      <dc:title>Matplotlib v3.4.2, https://matplotlib.org/</dc:title>
     </ns2:Agent>
    </dc:creator>
   </ns2:Work>
  </rdf:RDF>
 </metadata>
 <defs>
  <style type="text/css">*{stroke-linecap:butt;stroke-linejoin:round;}</style>
 </defs>
 <g id="figure_1">
  <g id="patch_1">
   <path d="M 0 101.033146  L 80.079981 101.033146  L 80.079981 0  L 0 0  z " style="fill:#ffffff;" />
  </g>
  <g id="axes_1">
   <g id="patch_2">
    <path d="M 80.079981 40.039977  C 80.079981 34.280216 78.837167 28.587693 76.436603 23.352032  C 74.036039 18.116371 70.533772 13.459813 66.169515 9.701074  C 61.805259 5.942336 56.680906 3.169175 51.147195 1.5714  C 45.613483 -0.026375 39.79961 -0.411459 34.103506 0.442504  C 28.407402 1.296467 22.962058 3.369539 18.140178 6.51983  C 13.318299 9.670121 9.232464 13.824078 6.162328 18.697384  C 3.092192 23.570691 1.109436 29.049567 0.349768 34.759011  C -0.4099 40.468456 0.071257 46.275167 1.760307 51.781705  L 40.039981 40.039977  L 80.079981 40.039977  z " style="fill:#fefebb;stroke:#444443;stroke-linejoin:miter;stroke-width:0.5;" />
   </g>
   <g id="patch_3">
    <path d="M 1.760307 51.781705  C 4.572027 60.948304 10.584914 68.80685 18.697388 73.91763  C 26.809862 79.02841 36.494291 81.059021 45.976456 79.63745  C 55.45862 78.215879 64.121804 73.434583 70.378884 66.169512  C 76.635963 58.90444 80.079981 49.628111 80.079981 40.039977  L 40.039981 40.039977  L 1.760307 51.781705  z " style="fill:#a1dab4;stroke:#444443;stroke-linejoin:miter;stroke-width:0.5;" />
   </g>
   <g id="text_1">
    
    <g style="fill:#444443;" transform="translate(27.402012 89.725208)scale(0.09 -0.09)">
     <defs>
      <path d="M 422 0  L 422 3319  L 928 3319  L 928 2847  Q 1294 3394 1984 3394  Q 2284 3394 2536 3286  Q 2788 3178 2913 3003  Q 3038 2828 3088 2588  Q 3119 2431 3119 2041  L 3119 0  L 2556 0  L 2556 2019  Q 2556 2363 2490 2533  Q 2425 2703 2258 2804  Q 2091 2906 1866 2906  Q 1506 2906 1245 2678  Q 984 2450 984 1813  L 984 0  L 422 0  z " id="ArialMT-6e" transform="scale(0.015625)" />
      <path d="M 3381 2694  L 356 2694  L 356 3219  L 3381 3219  L 3381 2694  z M 3381 1303  L 356 1303  L 356 1828  L 3381 1828  L 3381 1303  z " id="ArialMT-3d" transform="scale(0.015625)" />
      <path d="M 2384 0  L 1822 0  L 1822 3584  Q 1619 3391 1289 3197  Q 959 3003 697 2906  L 697 3450  Q 1169 3672 1522 3987  Q 1875 4303 2022 4600  L 2384 4600  L 2384 0  z " id="ArialMT-31" transform="scale(0.015625)" />
      <path d="M 266 1200  L 856 1250  Q 922 819 1161 601  Q 1400 384 1738 384  Q 2144 384 2425 690  Q 2706 997 2706 1503  Q 2706 1984 2436 2262  Q 2166 2541 1728 2541  Q 1456 2541 1237 2417  Q 1019 2294 894 2097  L 366 2166  L 809 4519  L 3088 4519  L 3088 3981  L 1259 3981  L 1013 2750  Q 1425 3038 1878 3038  Q 2478 3038 2890 2622  Q 3303 2206 3303 1553  Q 3303 931 2941 478  Q 2500 -78 1738 -78  Q 1113 -78 717 272  Q 322 622 266 1200  z " id="ArialMT-35" transform="scale(0.015625)" />
      <path d="M 269 1209  L 831 1284  Q 928 806 1161 595  Q 1394 384 1728 384  Q 2125 384 2398 659  Q 2672 934 2672 1341  Q 2672 1728 2419 1979  Q 2166 2231 1775 2231  Q 1616 2231 1378 2169  L 1441 2663  Q 1497 2656 1531 2656  Q 1891 2656 2178 2843  Q 2466 3031 2466 3422  Q 2466 3731 2256 3934  Q 2047 4138 1716 4138  Q 1388 4138 1169 3931  Q 950 3725 888 3313  L 325 3413  Q 428 3978 793 4289  Q 1159 4600 1703 4600  Q 2078 4600 2393 4439  Q 2709 4278 2876 4000  Q 3044 3722 3044 3409  Q 3044 3113 2884 2869  Q 2725 2625 2413 2481  Q 2819 2388 3044 2092  Q 3269 1797 3269 1353  Q 3269 753 2831 336  Q 2394 -81 1725 -81  Q 1122 -81 723 278  Q 325 638 269 1209  z " id="ArialMT-33" transform="scale(0.015625)" />
     </defs>
     <use xlink:href="#ArialMT-6e" />
     <use x="55.615234" xlink:href="#ArialMT-3d" />
     <use x="114.013672" xlink:href="#ArialMT-31" />
     <use x="169.628906" xlink:href="#ArialMT-35" />
     <use x="225.244141" xlink:href="#ArialMT-33" />
    </g>
    
    <g style="fill:#444443;" transform="translate(25.035996 99.244396)scale(0.09 -0.09)">
     <defs>
      <path d="M 525 0  L 525 4581  L 3616 4581  L 3616 4041  L 1131 4041  L 1131 2622  L 3281 2622  L 3281 2081  L 1131 2081  L 1131 0  L 525 0  z " id="ArialMT-46" transform="scale(0.015625)" />
      <path d="M 2694 1069  L 3275 997  Q 3138 488 2766 206  Q 2394 -75 1816 -75  Q 1088 -75 661 373  Q 234 822 234 1631  Q 234 2469 665 2931  Q 1097 3394 1784 3394  Q 2450 3394 2872 2941  Q 3294 2488 3294 1666  Q 3294 1616 3291 1516  L 816 1516  Q 847 969 1125 678  Q 1403 388 1819 388  Q 2128 388 2347 550  Q 2566 713 2694 1069  z M 847 1978  L 2700 1978  Q 2663 2397 2488 2606  Q 2219 2931 1791 2931  Q 1403 2931 1139 2672  Q 875 2413 847 1978  z " id="ArialMT-65" transform="scale(0.015625)" />
      <path d="M 422 0  L 422 3319  L 925 3319  L 925 2853  Q 1081 3097 1340 3245  Q 1600 3394 1931 3394  Q 2300 3394 2536 3241  Q 2772 3088 2869 2813  Q 3263 3394 3894 3394  Q 4388 3394 4653 3120  Q 4919 2847 4919 2278  L 4919 0  L 4359 0  L 4359 2091  Q 4359 2428 4304 2576  Q 4250 2725 4106 2815  Q 3963 2906 3769 2906  Q 3419 2906 3187 2673  Q 2956 2441 2956 1928  L 2956 0  L 2394 0  L 2394 2156  Q 2394 2531 2256 2718  Q 2119 2906 1806 2906  Q 1569 2906 1367 2781  Q 1166 2656 1075 2415  Q 984 2175 984 1722  L 984 0  L 422 0  z " id="ArialMT-6d" transform="scale(0.015625)" />
      <path d="M 2588 409  Q 2275 144 1986 34  Q 1697 -75 1366 -75  Q 819 -75 525 192  Q 231 459 231 875  Q 231 1119 342 1320  Q 453 1522 633 1644  Q 813 1766 1038 1828  Q 1203 1872 1538 1913  Q 2219 1994 2541 2106  Q 2544 2222 2544 2253  Q 2544 2597 2384 2738  Q 2169 2928 1744 2928  Q 1347 2928 1158 2789  Q 969 2650 878 2297  L 328 2372  Q 403 2725 575 2942  Q 747 3159 1072 3276  Q 1397 3394 1825 3394  Q 2250 3394 2515 3294  Q 2781 3194 2906 3042  Q 3031 2891 3081 2659  Q 3109 2516 3109 2141  L 3109 1391  Q 3109 606 3145 398  Q 3181 191 3288 0  L 2700 0  Q 2613 175 2588 409  z M 2541 1666  Q 2234 1541 1622 1453  Q 1275 1403 1131 1340  Q 988 1278 909 1158  Q 831 1038 831 891  Q 831 666 1001 516  Q 1172 366 1500 366  Q 1825 366 2078 508  Q 2331 650 2450 897  Q 2541 1088 2541 1459  L 2541 1666  z " id="ArialMT-61" transform="scale(0.015625)" />
      <path d="M 409 0  L 409 4581  L 972 4581  L 972 0  L 409 0  z " id="ArialMT-6c" transform="scale(0.015625)" />
     </defs>
     <use xlink:href="#ArialMT-46" />
     <use x="61.083984" xlink:href="#ArialMT-65" />
     <use x="116.699219" xlink:href="#ArialMT-6d" />
     <use x="200" xlink:href="#ArialMT-61" />
     <use x="255.615234" xlink:href="#ArialMT-6c" />
     <use x="277.832031" xlink:href="#ArialMT-65" />
    </g>
   </g>
  </g>
 </g>
</svg></g>

<g id="edge5" class="edge">
<title>node5-&gt;leaf7</title>
<path fill="none" stroke="#444443" stroke-width="0.3" d="M153.98,-100.64C154.79,-97.43 155.87,-93.12 157.09,-88.29" />
<polygon fill="#444443" stroke="#444443" stroke-width="0.3" points="158.52,-88.36 158.14,-84.13 155.8,-87.67 158.52,-88.36" />
</g>

<g id="node3" class="node">
<title>node1</title>
<text text-anchor="start" x="128" y="-134.4" font-family="Helvetica,sans-Serif" font-size="12.00" fill="#444443">SE3@2.50</text>
</g>

<g id="edge7" class="edge">
<title>node1-&gt;node2</title>
<path fill="none" stroke="#444443" stroke-width="0.3" d="M140.51,-130.97C126.73,-126.48 107.24,-120.14 92.48,-115.33" />
<polygon fill="#444443" stroke="#444443" stroke-width="0.3" points="92.69,-113.93 88.46,-114.02 91.83,-116.59 92.69,-113.93" />
</g>

<g id="edge8" class="edge">
<title>node1-&gt;node5</title>
<path fill="none" stroke="#444443" stroke-width="0.3" d="M156.49,-130.83C155.84,-127.19 154.98,-122.36 154.22,-118.13" />
<polygon fill="#444443" stroke="#444443" stroke-width="0.3" points="155.59,-117.85 153.51,-114.16 152.84,-118.34 155.59,-117.85" />
</g>

<g id="node6" class="node">
<title>node8</title>
<text text-anchor="start" x="203" y="-134.4" font-family="Helvetica,sans-Serif" font-size="12.00" fill="#444443">EE3@3.50</text>
</g>


<g id="node4" class="node">
<title>node9</title>
<text text-anchor="start" x="203" y="-104.4" font-family="Helvetica,sans-Serif" font-size="12.00" fill="#444443">AX4@3.50</text>
</g>

<g id="node5" class="node">
<title>node12</title>
<text text-anchor="start" x="285" y="-104.4" font-family="Helvetica,sans-Serif" font-size="12.00" fill="#444443">FC4@4.50</text>
</g>


<g id="node12" class="node">
<title>leaf10</title>
<polygon fill="none" stroke="#444443" stroke-width="0" points="241,-63.5 210,-63.5 210,-20.5 241,-20.5 241,-63.5" />
<svg height="35px" version="1.1" viewBox="0 0 30.007969 46.578769" width="23px" preserveAspectRatio="xMinYMin meet" x="214.5" y="-59">
 <metadata>
  <rdf:RDF>
   <ns2:Work>
    <dc:type rdf:resource="http://purl.org/dc/dcmitype/StillImage" />
    <dc:date>2022-04-20T09:08:43.697436</dc:date>
    <dc:format>image/svg+xml</dc:format>
    <dc:creator>
     <ns2:Agent>
      <dc:title>Matplotlib v3.4.2, https://matplotlib.org/</dc:title>
     </ns2:Agent>
    </dc:creator>
   </ns2:Work>
  </rdf:RDF>
 </metadata>
 <defs>
  <style type="text/css">*{stroke-linecap:butt;stroke-linejoin:round;}</style>
 </defs>
 <g id="figure_1">
  <g id="patch_1">
   <path d="M 0 46.578769  L 30.007969 46.578769  L 30.007969 0  L 0 0  z " style="fill:#ffffff;" />
  </g>
  <g id="axes_1">
   <g id="patch_2">
    <path d="M 28.863984 13.86  C 28.863984 11.427243 28.223475 9.036829 27.007096 6.93  C 25.790718 4.82317 24.040813 3.073266 21.933984 1.856888  C 19.827155 0.640509 17.436741 -0 15.003984 0  C 12.571227 0 10.180813 0.64051 8.073984 1.856888  C 5.967154 3.073267 4.21725 4.823171 3.000872 6.930001  C 1.784493 9.03683 1.143984 11.427244 1.143984 13.860001  C 1.143985 16.292758 1.784494 18.683172 3.000873 20.790001  C 4.217252 22.896831 5.967156 24.646735 8.073986 25.863113  L 15.003984 13.86  L 28.863984 13.86  z " style="fill:#fefebb;stroke:#444443;stroke-linejoin:miter;stroke-width:0.5;" />
   </g>
   <g id="patch_3">
    <path d="M 8.073986 25.863113  C 10.180815 27.079491 12.571229 27.72 15.003986 27.72  C 17.436743 27.72 19.827157 27.07949 21.933986 25.863111  C 24.040816 24.646732 25.790719 22.896828 27.007098 20.789998  C 28.223476 18.683168 28.863985 16.292755 28.863984 13.859997  L 15.003984 13.86  L 8.073986 25.863113  z " style="fill:#a1dab4;stroke:#444443;stroke-linejoin:miter;stroke-width:0.5;" />
   </g>
   <g id="text_1">
    
    <g style="fill:#444443;" transform="translate(4.868438 35.270831)scale(0.09 -0.09)">
     <defs>
      <path d="M 422 0  L 422 3319  L 928 3319  L 928 2847  Q 1294 3394 1984 3394  Q 2284 3394 2536 3286  Q 2788 3178 2913 3003  Q 3038 2828 3088 2588  Q 3119 2431 3119 2041  L 3119 0  L 2556 0  L 2556 2019  Q 2556 2363 2490 2533  Q 2425 2703 2258 2804  Q 2091 2906 1866 2906  Q 1506 2906 1245 2678  Q 984 2450 984 1813  L 984 0  L 422 0  z " id="ArialMT-6e" transform="scale(0.015625)" />
      <path d="M 3381 2694  L 356 2694  L 356 3219  L 3381 3219  L 3381 2694  z M 3381 1303  L 356 1303  L 356 1828  L 3381 1828  L 3381 1303  z " id="ArialMT-3d" transform="scale(0.015625)" />
      <path d="M 2384 0  L 1822 0  L 1822 3584  Q 1619 3391 1289 3197  Q 959 3003 697 2906  L 697 3450  Q 1169 3672 1522 3987  Q 1875 4303 2022 4600  L 2384 4600  L 2384 0  z " id="ArialMT-31" transform="scale(0.015625)" />
      <path d="M 266 1200  L 856 1250  Q 922 819 1161 601  Q 1400 384 1738 384  Q 2144 384 2425 690  Q 2706 997 2706 1503  Q 2706 1984 2436 2262  Q 2166 2541 1728 2541  Q 1456 2541 1237 2417  Q 1019 2294 894 2097  L 366 2166  L 809 4519  L 3088 4519  L 3088 3981  L 1259 3981  L 1013 2750  Q 1425 3038 1878 3038  Q 2478 3038 2890 2622  Q 3303 2206 3303 1553  Q 3303 931 2941 478  Q 2500 -78 1738 -78  Q 1113 -78 717 272  Q 322 622 266 1200  z " id="ArialMT-35" transform="scale(0.015625)" />
     </defs>
     <use xlink:href="#ArialMT-6e" />
     <use x="55.615234" xlink:href="#ArialMT-3d" />
     <use x="114.013672" xlink:href="#ArialMT-31" />
     <use x="169.628906" xlink:href="#ArialMT-35" />
    </g>
    
    <g style="fill:#444443;" transform="translate(0 44.790019)scale(0.09 -0.09)">
     <defs>
      <path d="M 525 0  L 525 4581  L 3616 4581  L 3616 4041  L 1131 4041  L 1131 2622  L 3281 2622  L 3281 2081  L 1131 2081  L 1131 0  L 525 0  z " id="ArialMT-46" transform="scale(0.015625)" />
      <path d="M 2694 1069  L 3275 997  Q 3138 488 2766 206  Q 2394 -75 1816 -75  Q 1088 -75 661 373  Q 234 822 234 1631  Q 234 2469 665 2931  Q 1097 3394 1784 3394  Q 2450 3394 2872 2941  Q 3294 2488 3294 1666  Q 3294 1616 3291 1516  L 816 1516  Q 847 969 1125 678  Q 1403 388 1819 388  Q 2128 388 2347 550  Q 2566 713 2694 1069  z M 847 1978  L 2700 1978  Q 2663 2397 2488 2606  Q 2219 2931 1791 2931  Q 1403 2931 1139 2672  Q 875 2413 847 1978  z " id="ArialMT-65" transform="scale(0.015625)" />
      <path d="M 422 0  L 422 3319  L 925 3319  L 925 2853  Q 1081 3097 1340 3245  Q 1600 3394 1931 3394  Q 2300 3394 2536 3241  Q 2772 3088 2869 2813  Q 3263 3394 3894 3394  Q 4388 3394 4653 3120  Q 4919 2847 4919 2278  L 4919 0  L 4359 0  L 4359 2091  Q 4359 2428 4304 2576  Q 4250 2725 4106 2815  Q 3963 2906 3769 2906  Q 3419 2906 3187 2673  Q 2956 2441 2956 1928  L 2956 0  L 2394 0  L 2394 2156  Q 2394 2531 2256 2718  Q 2119 2906 1806 2906  Q 1569 2906 1367 2781  Q 1166 2656 1075 2415  Q 984 2175 984 1722  L 984 0  L 422 0  z " id="ArialMT-6d" transform="scale(0.015625)" />
      <path d="M 2588 409  Q 2275 144 1986 34  Q 1697 -75 1366 -75  Q 819 -75 525 192  Q 231 459 231 875  Q 231 1119 342 1320  Q 453 1522 633 1644  Q 813 1766 1038 1828  Q 1203 1872 1538 1913  Q 2219 1994 2541 2106  Q 2544 2222 2544 2253  Q 2544 2597 2384 2738  Q 2169 2928 1744 2928  Q 1347 2928 1158 2789  Q 969 2650 878 2297  L 328 2372  Q 403 2725 575 2942  Q 747 3159 1072 3276  Q 1397 3394 1825 3394  Q 2250 3394 2515 3294  Q 2781 3194 2906 3042  Q 3031 2891 3081 2659  Q 3109 2516 3109 2141  L 3109 1391  Q 3109 606 3145 398  Q 3181 191 3288 0  L 2700 0  Q 2613 175 2588 409  z M 2541 1666  Q 2234 1541 1622 1453  Q 1275 1403 1131 1340  Q 988 1278 909 1158  Q 831 1038 831 891  Q 831 666 1001 516  Q 1172 366 1500 366  Q 1825 366 2078 508  Q 2331 650 2450 897  Q 2541 1088 2541 1459  L 2541 1666  z " id="ArialMT-61" transform="scale(0.015625)" />
      <path d="M 409 0  L 409 4581  L 972 4581  L 972 0  L 409 0  z " id="ArialMT-6c" transform="scale(0.015625)" />
     </defs>
     <use xlink:href="#ArialMT-46" />
     <use x="61.083984" xlink:href="#ArialMT-65" />
     <use x="116.699219" xlink:href="#ArialMT-6d" />
     <use x="200" xlink:href="#ArialMT-61" />
     <use x="255.615234" xlink:href="#ArialMT-6c" />
     <use x="277.832031" xlink:href="#ArialMT-65" />
    </g>
   </g>
  </g>
 </g>
</svg></g>

<g id="edge10" class="edge">
<title>node9-&gt;leaf10</title>
<path fill="none" stroke="#444443" stroke-width="0.3" d="M231.85,-100.64C231.03,-93.14 229.54,-79.67 228.22,-67.63" />
<polygon fill="#444443" stroke="#444443" stroke-width="0.3" points="229.6,-67.44 227.77,-63.62 226.82,-67.75 229.6,-67.44" />
</g>

<g id="node13" class="node">
<title>leaf11</title>
<polygon fill="none" stroke="#444443" stroke-width="0" points="278,-58.5 255,-58.5 255,-25.5 278,-25.5 278,-58.5" />
<svg height="25px" version="1.1" viewBox="0 0 19.506094 33.765969" width="15px" preserveAspectRatio="xMinYMin meet" x="259.5" y="-54">
 <metadata>
  <rdf:RDF>
   <ns2:Work>
    <dc:type rdf:resource="http://purl.org/dc/dcmitype/StillImage" />
    <dc:date>2022-04-20T09:08:43.812609</dc:date>
    <dc:format>image/svg+xml</dc:format>
    <dc:creator>
     <ns2:Agent>
      <dc:title>Matplotlib v3.4.2, https://matplotlib.org/</dc:title>
     </ns2:Agent>
    </dc:creator>
   </ns2:Work>
  </rdf:RDF>
 </metadata>
 <defs>
  <style type="text/css">*{stroke-linecap:butt;stroke-linejoin:round;}</style>
 </defs>
 <g id="figure_1">
  <g id="patch_1">
   <path d="M 0 33.765969  L 19.506094 33.765969  L 19.506094 0  L 0 0  z " style="fill:#ffffff;" />
  </g>
  <g id="axes_1">
   <g id="patch_2">
    <path d="M 17.453047 7.7  C 17.453047 6.688845 17.253871 5.687523 16.866919 4.753338  C 16.479967 3.819152 15.912763 2.970272 15.197769 2.255278  C 14.482775 1.540283 13.633894 0.97308 12.699709 0.586128  C 11.765524 0.199175 10.764202 -0 9.753047 -0  C 8.741892 -0 7.74057 0.199175 6.806384 0.586128  C 5.872199 0.97308 5.023319 1.540283 4.308325 2.255278  C 3.59333 2.970272 3.026127 3.819152 2.639174 4.753338  C 2.252222 5.687523 2.053047 6.688845 2.053047 7.7  C 2.053047 8.711155 2.252222 9.712477 2.639174 10.646662  C 3.026127 11.580848 3.59333 12.429728 4.308325 13.144722  C 5.023319 13.859717 5.872199 14.42692 6.806384 14.813872  C 7.74057 15.200825 8.741892 15.4 9.753047 15.4  C 10.764202 15.4 11.765524 15.200825 12.699709 14.813872  C 13.633894 14.42692 14.482775 13.859717 15.197769 13.144722  C 15.912763 12.429728 16.479967 11.580848 16.866919 10.646662  C 17.253871 9.712477 17.453047 8.711155 17.453047 7.7  M 9.753047 7.7  M 17.453047 7.7  z " style="fill:#a1dab4;stroke:#444443;stroke-linejoin:miter;stroke-width:0.5;" />
   </g>
   <g id="text_1">
    
    <g style="fill:#444443;" transform="translate(2.119922 22.458031)scale(0.09 -0.09)">
     <defs>
      <path d="M 422 0  L 422 3319  L 928 3319  L 928 2847  Q 1294 3394 1984 3394  Q 2284 3394 2536 3286  Q 2788 3178 2913 3003  Q 3038 2828 3088 2588  Q 3119 2431 3119 2041  L 3119 0  L 2556 0  L 2556 2019  Q 2556 2363 2490 2533  Q 2425 2703 2258 2804  Q 2091 2906 1866 2906  Q 1506 2906 1245 2678  Q 984 2450 984 1813  L 984 0  L 422 0  z " id="ArialMT-6e" transform="scale(0.015625)" />
      <path d="M 3381 2694  L 356 2694  L 356 3219  L 3381 3219  L 3381 2694  z M 3381 1303  L 356 1303  L 356 1828  L 3381 1828  L 3381 1303  z " id="ArialMT-3d" transform="scale(0.015625)" />
      <path d="M 266 1200  L 856 1250  Q 922 819 1161 601  Q 1400 384 1738 384  Q 2144 384 2425 690  Q 2706 997 2706 1503  Q 2706 1984 2436 2262  Q 2166 2541 1728 2541  Q 1456 2541 1237 2417  Q 1019 2294 894 2097  L 366 2166  L 809 4519  L 3088 4519  L 3088 3981  L 1259 3981  L 1013 2750  Q 1425 3038 1878 3038  Q 2478 3038 2890 2622  Q 3303 2206 3303 1553  Q 3303 931 2941 478  Q 2500 -78 1738 -78  Q 1113 -78 717 272  Q 322 622 266 1200  z " id="ArialMT-35" transform="scale(0.015625)" />
     </defs>
     <use xlink:href="#ArialMT-6e" />
     <use x="55.615234" xlink:href="#ArialMT-3d" />
     <use x="114.013672" xlink:href="#ArialMT-35" />
    </g>
    
    <g style="fill:#444443;" transform="translate(0 31.977219)scale(0.09 -0.09)">
     <defs>
      <path d="M 475 0  L 475 4581  L 1388 4581  L 2472 1338  Q 2622 884 2691 659  Q 2769 909 2934 1394  L 4031 4581  L 4847 4581  L 4847 0  L 4263 0  L 4263 3834  L 2931 0  L 2384 0  L 1059 3900  L 1059 0  L 475 0  z " id="ArialMT-4d" transform="scale(0.015625)" />
      <path d="M 2588 409  Q 2275 144 1986 34  Q 1697 -75 1366 -75  Q 819 -75 525 192  Q 231 459 231 875  Q 231 1119 342 1320  Q 453 1522 633 1644  Q 813 1766 1038 1828  Q 1203 1872 1538 1913  Q 2219 1994 2541 2106  Q 2544 2222 2544 2253  Q 2544 2597 2384 2738  Q 2169 2928 1744 2928  Q 1347 2928 1158 2789  Q 969 2650 878 2297  L 328 2372  Q 403 2725 575 2942  Q 747 3159 1072 3276  Q 1397 3394 1825 3394  Q 2250 3394 2515 3294  Q 2781 3194 2906 3042  Q 3031 2891 3081 2659  Q 3109 2516 3109 2141  L 3109 1391  Q 3109 606 3145 398  Q 3181 191 3288 0  L 2700 0  Q 2613 175 2588 409  z M 2541 1666  Q 2234 1541 1622 1453  Q 1275 1403 1131 1340  Q 988 1278 909 1158  Q 831 1038 831 891  Q 831 666 1001 516  Q 1172 366 1500 366  Q 1825 366 2078 508  Q 2331 650 2450 897  Q 2541 1088 2541 1459  L 2541 1666  z " id="ArialMT-61" transform="scale(0.015625)" />
      <path d="M 409 0  L 409 4581  L 972 4581  L 972 0  L 409 0  z " id="ArialMT-6c" transform="scale(0.015625)" />
      <path d="M 2694 1069  L 3275 997  Q 3138 488 2766 206  Q 2394 -75 1816 -75  Q 1088 -75 661 373  Q 234 822 234 1631  Q 234 2469 665 2931  Q 1097 3394 1784 3394  Q 2450 3394 2872 2941  Q 3294 2488 3294 1666  Q 3294 1616 3291 1516  L 816 1516  Q 847 969 1125 678  Q 1403 388 1819 388  Q 2128 388 2347 550  Q 2566 713 2694 1069  z M 847 1978  L 2700 1978  Q 2663 2397 2488 2606  Q 2219 2931 1791 2931  Q 1403 2931 1139 2672  Q 875 2413 847 1978  z " id="ArialMT-65" transform="scale(0.015625)" />
     </defs>
     <use xlink:href="#ArialMT-4d" />
     <use x="83.300781" xlink:href="#ArialMT-61" />
     <use x="138.916016" xlink:href="#ArialMT-6c" />
     <use x="161.132812" xlink:href="#ArialMT-65" />
    </g>
   </g>
  </g>
 </g>
</svg></g>

<g id="edge11" class="edge">
<title>node9-&gt;leaf11</title>
<path fill="none" stroke="#444443" stroke-width="0.3" d="M235.64,-100.64C240.27,-92 249.14,-75.43 256.18,-62.27" />
<polygon fill="#444443" stroke="#444443" stroke-width="0.3" points="257.46,-62.84 258.12,-58.66 254.99,-61.52 257.46,-62.84" />
</g>

<g id="node14" class="node">
<title>leaf13</title>
<polygon fill="none" stroke="#444443" stroke-width="0" points="350,-82 285,-82 285,-2 350,-2 350,-82" />
<svg height="72px" version="1.1" viewBox="0 0 75.768 96.548682" width="57px" preserveAspectRatio="xMinYMin meet" x="289.5" y="-78">
 <metadata>
  <rdf:RDF>
   <ns2:Work>
    <dc:type rdf:resource="http://purl.org/dc/dcmitype/StillImage" />
    <dc:date>2022-04-20T09:08:43.926902</dc:date>
    <dc:format>image/svg+xml</dc:format>
    <dc:creator>
     <ns2:Agent>
      <dc:title>Matplotlib v3.4.2, https://matplotlib.org/</dc:title>
     </ns2:Agent>
    </dc:creator>
   </ns2:Work>
  </rdf:RDF>
 </metadata>
 <defs>
  <style type="text/css">*{stroke-linecap:butt;stroke-linejoin:round;}</style>
 </defs>
 <g id="figure_1">
  <g id="patch_1">
   <path d="M -0 96.548682  L 75.768 96.548682  L 75.768 -0  L -0 -0  z " style="fill:#ffffff;" />
  </g>
  <g id="axes_1">
   <g id="patch_2">
    <path d="M 75.768 37.883993  C 75.768 33.203453 74.900584 28.563187 73.209778 24.198714  C 71.518972 19.83424 69.033873 15.820668 65.880614 12.361707  L 37.884 37.883993  L 75.768 37.883993  z " style="fill:#fefebb;stroke:#444443;stroke-linejoin:miter;stroke-width:0.5;" />
   </g>
   <g id="patch_3">
    <path d="M 65.880614 12.361707  C 62.925443 9.120039 59.429581 6.416123 55.549151 4.370713  C 51.66872 2.325303 47.462357 0.969308 43.117915 0.363284  C 38.773472 -0.24274 34.3566 -0.089634 30.064549 0.815763  C 25.772498 1.721161 21.670127 3.365169 17.940643 5.674367  C 14.21116 7.983566 10.91092 10.92306 8.18731 14.361576  C 5.4637 17.800092 3.357876 21.68567 1.963882 25.844783  C 0.569887 30.003897 -0.091212 34.373697 0.010107 38.759034  C 0.111426 43.144371 0.973633 47.478977 2.558222 51.569273  C 4.142812 55.659569 6.425838 59.443746 9.305345 62.752808  C 12.184852 66.061869 15.617326 68.84581 19.449477 70.980304  C 23.281628 73.114798 27.455547 74.56759 31.784833 75.273799  C 36.114118 75.980009 40.533349 75.928964 44.845168 75.122946  C 49.156987 74.316927 53.296236 72.768114 57.078062 70.545674  C 60.859888 68.323235 64.227143 65.460753 67.029449 62.086064  C 69.831755 58.711375 72.026766 54.875474 73.516455 50.749668  C 75.006144 46.623863 75.768 42.270498 75.768 37.883991  L 37.884 37.883993  L 65.880614 12.361707  z " style="fill:#a1dab4;stroke:#444443;stroke-linejoin:miter;stroke-width:0.5;" />
   </g>
   <g id="text_1">
    
    <g style="fill:#444443;" transform="translate(27.748453 85.240744)scale(0.09 -0.09)">
     <defs>
      <path d="M 422 0  L 422 3319  L 928 3319  L 928 2847  Q 1294 3394 1984 3394  Q 2284 3394 2536 3286  Q 2788 3178 2913 3003  Q 3038 2828 3088 2588  Q 3119 2431 3119 2041  L 3119 0  L 2556 0  L 2556 2019  Q 2556 2363 2490 2533  Q 2425 2703 2258 2804  Q 2091 2906 1866 2906  Q 1506 2906 1245 2678  Q 984 2450 984 1813  L 984 0  L 422 0  z " id="ArialMT-6e" transform="scale(0.015625)" />
      <path d="M 3381 2694  L 356 2694  L 356 3219  L 3381 3219  L 3381 2694  z M 3381 1303  L 356 1303  L 356 1828  L 3381 1828  L 3381 1303  z " id="ArialMT-3d" transform="scale(0.015625)" />
      <path d="M 266 1200  L 856 1250  Q 922 819 1161 601  Q 1400 384 1738 384  Q 2144 384 2425 690  Q 2706 997 2706 1503  Q 2706 1984 2436 2262  Q 2166 2541 1728 2541  Q 1456 2541 1237 2417  Q 1019 2294 894 2097  L 366 2166  L 809 4519  L 3088 4519  L 3088 3981  L 1259 3981  L 1013 2750  Q 1425 3038 1878 3038  Q 2478 3038 2890 2622  Q 3303 2206 3303 1553  Q 3303 931 2941 478  Q 2500 -78 1738 -78  Q 1113 -78 717 272  Q 322 622 266 1200  z " id="ArialMT-35" transform="scale(0.015625)" />
      <path d="M 2069 0  L 2069 1097  L 81 1097  L 81 1613  L 2172 4581  L 2631 4581  L 2631 1613  L 3250 1613  L 3250 1097  L 2631 1097  L 2631 0  L 2069 0  z M 2069 1613  L 2069 3678  L 634 1613  L 2069 1613  z " id="ArialMT-34" transform="scale(0.015625)" />
     </defs>
     <use xlink:href="#ArialMT-6e" />
     <use x="55.615234" xlink:href="#ArialMT-3d" />
     <use x="114.013672" xlink:href="#ArialMT-35" />
     <use x="169.628906" xlink:href="#ArialMT-34" />
    </g>
    
    <g style="fill:#444443;" transform="translate(28.130953 94.759932)scale(0.09 -0.09)">
     <defs>
      <path d="M 475 0  L 475 4581  L 1388 4581  L 2472 1338  Q 2622 884 2691 659  Q 2769 909 2934 1394  L 4031 4581  L 4847 4581  L 4847 0  L 4263 0  L 4263 3834  L 2931 0  L 2384 0  L 1059 3900  L 1059 0  L 475 0  z " id="ArialMT-4d" transform="scale(0.015625)" />
      <path d="M 2588 409  Q 2275 144 1986 34  Q 1697 -75 1366 -75  Q 819 -75 525 192  Q 231 459 231 875  Q 231 1119 342 1320  Q 453 1522 633 1644  Q 813 1766 1038 1828  Q 1203 1872 1538 1913  Q 2219 1994 2541 2106  Q 2544 2222 2544 2253  Q 2544 2597 2384 2738  Q 2169 2928 1744 2928  Q 1347 2928 1158 2789  Q 969 2650 878 2297  L 328 2372  Q 403 2725 575 2942  Q 747 3159 1072 3276  Q 1397 3394 1825 3394  Q 2250 3394 2515 3294  Q 2781 3194 2906 3042  Q 3031 2891 3081 2659  Q 3109 2516 3109 2141  L 3109 1391  Q 3109 606 3145 398  Q 3181 191 3288 0  L 2700 0  Q 2613 175 2588 409  z M 2541 1666  Q 2234 1541 1622 1453  Q 1275 1403 1131 1340  Q 988 1278 909 1158  Q 831 1038 831 891  Q 831 666 1001 516  Q 1172 366 1500 366  Q 1825 366 2078 508  Q 2331 650 2450 897  Q 2541 1088 2541 1459  L 2541 1666  z " id="ArialMT-61" transform="scale(0.015625)" />
      <path d="M 409 0  L 409 4581  L 972 4581  L 972 0  L 409 0  z " id="ArialMT-6c" transform="scale(0.015625)" />
      <path d="M 2694 1069  L 3275 997  Q 3138 488 2766 206  Q 2394 -75 1816 -75  Q 1088 -75 661 373  Q 234 822 234 1631  Q 234 2469 665 2931  Q 1097 3394 1784 3394  Q 2450 3394 2872 2941  Q 3294 2488 3294 1666  Q 3294 1616 3291 1516  L 816 1516  Q 847 969 1125 678  Q 1403 388 1819 388  Q 2128 388 2347 550  Q 2566 713 2694 1069  z M 847 1978  L 2700 1978  Q 2663 2397 2488 2606  Q 2219 2931 1791 2931  Q 1403 2931 1139 2672  Q 875 2413 847 1978  z " id="ArialMT-65" transform="scale(0.015625)" />
     </defs>
     <use xlink:href="#ArialMT-4d" />
     <use x="83.300781" xlink:href="#ArialMT-61" />
     <use x="138.916016" xlink:href="#ArialMT-6c" />
     <use x="161.132812" xlink:href="#ArialMT-65" />
    </g>
   </g>
  </g>
 </g>
</svg></g>

<g id="edge13" class="edge">
<title>node12-&gt;leaf13</title>
<path fill="none" stroke="#444443" stroke-width="0.3" d="M314.78,-100.64C314.95,-96.95 315.19,-91.81 315.46,-86.11" />
<polygon fill="#444443" stroke="#444443" stroke-width="0.3" points="316.86,-86.15 315.65,-82.09 314.07,-86.01 316.86,-86.15" />
</g>

<g id="node15" class="node">
<title>leaf14</title>
<polygon fill="none" stroke="#444443" stroke-width="0" points="395,-61.5 364,-61.5 364,-22.5 395,-22.5 395,-61.5" />
<svg height="31px" version="1.1" viewBox="0 0 30.007969 41.453649" width="23px" preserveAspectRatio="xMinYMin meet" x="368.5" y="-57">
 <metadata>
  <rdf:RDF>
   <ns2:Work>
    <dc:type rdf:resource="http://purl.org/dc/dcmitype/StillImage" />
    <dc:date>2022-04-20T09:08:44.034059</dc:date>
    <dc:format>image/svg+xml</dc:format>
    <dc:creator>
     <ns2:Agent>
      <dc:title>Matplotlib v3.4.2, https://matplotlib.org/</dc:title>
     </ns2:Agent>
    </dc:creator>
   </ns2:Work>
  </rdf:RDF>
 </metadata>
 <defs>
  <style type="text/css">*{stroke-linecap:butt;stroke-linejoin:round;}</style>
 </defs>
 <g id="figure_1">
  <g id="patch_1">
   <path d="M 0 41.453649  L 30.007969 41.453649  L 30.007969 0  L 0 0  z " style="fill:#ffffff;" />
  </g>
  <g id="axes_1">
   <g id="patch_2">
    <path d="M 26.399984 11.396  C 26.399984 8.374752 25.198518 5.474156 23.062173 3.337811  C 20.925828 1.201466 18.025232 0 15.003984 0  C 11.982736 0 9.08214 1.201466 6.945795 3.337811  C 4.809451 5.474156 3.607984 8.374752 3.607984 11.396  L 15.003984 11.396  L 26.399984 11.396  z " style="fill:#fefebb;stroke:#444443;stroke-linejoin:miter;stroke-width:0.5;" />
   </g>
   <g id="patch_3">
    <path d="M 3.607984 11.396  C 3.607984 14.417248 4.809451 17.317844 6.945795 19.454189  C 9.08214 21.590534 11.982736 22.792 15.003984 22.792  C 18.025232 22.792 20.925828 21.590534 23.062173 19.454189  C 25.198518 17.317844 26.399984 14.417248 26.399984 11.396  L 15.003984 11.396  L 3.607984 11.396  z " style="fill:#a1dab4;stroke:#444443;stroke-linejoin:miter;stroke-width:0.5;" />
   </g>
   <g id="text_1">
    
    <g style="fill:#444443;" transform="translate(5.200313 30.145711)scale(0.09 -0.09)">
     <defs>
      <path d="M 422 0  L 422 3319  L 928 3319  L 928 2847  Q 1294 3394 1984 3394  Q 2284 3394 2536 3286  Q 2788 3178 2913 3003  Q 3038 2828 3088 2588  Q 3119 2431 3119 2041  L 3119 0  L 2556 0  L 2556 2019  Q 2556 2363 2490 2533  Q 2425 2703 2258 2804  Q 2091 2906 1866 2906  Q 1506 2906 1245 2678  Q 984 2450 984 1813  L 984 0  L 422 0  z " id="ArialMT-6e" transform="scale(0.015625)" />
      <path d="M 3381 2694  L 356 2694  L 356 3219  L 3381 3219  L 3381 2694  z M 3381 1303  L 356 1303  L 356 1828  L 3381 1828  L 3381 1303  z " id="ArialMT-3d" transform="scale(0.015625)" />
      <path d="M 2384 0  L 1822 0  L 1822 3584  Q 1619 3391 1289 3197  Q 959 3003 697 2906  L 697 3450  Q 1169 3672 1522 3987  Q 1875 4303 2022 4600  L 2384 4600  L 2384 0  z " id="ArialMT-31" transform="scale(0.015625)" />
     </defs>
     <use xlink:href="#ArialMT-6e" />
     <use x="55.615234" xlink:href="#ArialMT-3d" />
     <use x="114.013672" xlink:href="#ArialMT-31" />
     <use x="162.253906" xlink:href="#ArialMT-31" />
    </g>
    
    <g style="fill:#444443;" transform="translate(0 39.664899)scale(0.09 -0.09)">
     <defs>
      <path d="M 525 0  L 525 4581  L 3616 4581  L 3616 4041  L 1131 4041  L 1131 2622  L 3281 2622  L 3281 2081  L 1131 2081  L 1131 0  L 525 0  z " id="ArialMT-46" transform="scale(0.015625)" />
      <path d="M 2694 1069  L 3275 997  Q 3138 488 2766 206  Q 2394 -75 1816 -75  Q 1088 -75 661 373  Q 234 822 234 1631  Q 234 2469 665 2931  Q 1097 3394 1784 3394  Q 2450 3394 2872 2941  Q 3294 2488 3294 1666  Q 3294 1616 3291 1516  L 816 1516  Q 847 969 1125 678  Q 1403 388 1819 388  Q 2128 388 2347 550  Q 2566 713 2694 1069  z M 847 1978  L 2700 1978  Q 2663 2397 2488 2606  Q 2219 2931 1791 2931  Q 1403 2931 1139 2672  Q 875 2413 847 1978  z " id="ArialMT-65" transform="scale(0.015625)" />
      <path d="M 422 0  L 422 3319  L 925 3319  L 925 2853  Q 1081 3097 1340 3245  Q 1600 3394 1931 3394  Q 2300 3394 2536 3241  Q 2772 3088 2869 2813  Q 3263 3394 3894 3394  Q 4388 3394 4653 3120  Q 4919 2847 4919 2278  L 4919 0  L 4359 0  L 4359 2091  Q 4359 2428 4304 2576  Q 4250 2725 4106 2815  Q 3963 2906 3769 2906  Q 3419 2906 3187 2673  Q 2956 2441 2956 1928  L 2956 0  L 2394 0  L 2394 2156  Q 2394 2531 2256 2718  Q 2119 2906 1806 2906  Q 1569 2906 1367 2781  Q 1166 2656 1075 2415  Q 984 2175 984 1722  L 984 0  L 422 0  z " id="ArialMT-6d" transform="scale(0.015625)" />
      <path d="M 2588 409  Q 2275 144 1986 34  Q 1697 -75 1366 -75  Q 819 -75 525 192  Q 231 459 231 875  Q 231 1119 342 1320  Q 453 1522 633 1644  Q 813 1766 1038 1828  Q 1203 1872 1538 1913  Q 2219 1994 2541 2106  Q 2544 2222 2544 2253  Q 2544 2597 2384 2738  Q 2169 2928 1744 2928  Q 1347 2928 1158 2789  Q 969 2650 878 2297  L 328 2372  Q 403 2725 575 2942  Q 747 3159 1072 3276  Q 1397 3394 1825 3394  Q 2250 3394 2515 3294  Q 2781 3194 2906 3042  Q 3031 2891 3081 2659  Q 3109 2516 3109 2141  L 3109 1391  Q 3109 606 3145 398  Q 3181 191 3288 0  L 2700 0  Q 2613 175 2588 409  z M 2541 1666  Q 2234 1541 1622 1453  Q 1275 1403 1131 1340  Q 988 1278 909 1158  Q 831 1038 831 891  Q 831 666 1001 516  Q 1172 366 1500 366  Q 1825 366 2078 508  Q 2331 650 2450 897  Q 2541 1088 2541 1459  L 2541 1666  z " id="ArialMT-61" transform="scale(0.015625)" />
      <path d="M 409 0  L 409 4581  L 972 4581  L 972 0  L 409 0  z " id="ArialMT-6c" transform="scale(0.015625)" />
     </defs>
     <use xlink:href="#ArialMT-46" />
     <use x="61.083984" xlink:href="#ArialMT-65" />
     <use x="116.699219" xlink:href="#ArialMT-6d" />
     <use x="200" xlink:href="#ArialMT-61" />
     <use x="255.615234" xlink:href="#ArialMT-6c" />
     <use x="277.832031" xlink:href="#ArialMT-65" />
    </g>
   </g>
  </g>
 </g>
</svg></g>

<g id="edge14" class="edge">
<title>node12-&gt;leaf14</title>
<path fill="none" stroke="#444443" stroke-width="0.3" d="M320.5,-100.64C329.56,-91.79 347.11,-74.64 360.73,-61.34" />
<polygon fill="#444443" stroke="#444443" stroke-width="0.3" points="361.86,-62.19 363.74,-58.39 359.9,-60.19 361.86,-62.19" />
</g>

<g id="edge16" class="edge">
<title>node8-&gt;node9</title>
<path fill="none" stroke="#444443" stroke-width="0.3" d="M232.5,-130.83C232.5,-127.27 232.5,-122.56 232.5,-118.39" />
<polygon fill="#444443" stroke="#444443" stroke-width="0.3" points="233.9,-118.16 232.5,-114.16 231.1,-118.16 233.9,-118.16" />
</g>

<g id="edge17" class="edge">
<title>node8-&gt;node12</title>
<path fill="none" stroke="#444443" stroke-width="0.3" d="M248.7,-130.97C261.84,-126.48 280.42,-120.14 294.49,-115.33" />
<polygon fill="#444443" stroke="#444443" stroke-width="0.3" points="295,-116.64 298.33,-114.02 294.1,-113.99 295,-116.64" />
</g>

<g id="node7" class="node">
<title>node0</title>
<text text-anchor="start" x="164" y="-194.9" font-family="Helvetica,sans-Serif" font-size="12.00" fill="#444443">FC3@3.50</text>
</g>

<g id="edge19" class="edge">
<title>node0-&gt;node1</title>
<path fill="none" stroke="#444443" stroke-width="0.3" d="M189.92,-191.18C183.66,-181.01 170.71,-159.97 163.21,-147.78" />
<polygon fill="#444443" stroke="#444443" stroke-width="0.3" points="164.36,-146.97 161.07,-144.3 161.97,-148.44 164.36,-146.97" />
<text text-anchor="start" x="174.5" y="-155.8" font-family="Times New Roman,serif" font-size="14.00">&#8804;</text>
</g>

<g id="edge20" class="edge">
<title>node0-&gt;node8</title>
<path fill="none" stroke="#444443" stroke-width="0.3" d="M197.38,-191.18C204.16,-181.01 218.19,-159.97 226.32,-147.78" />
<polygon fill="#444443" stroke="#444443" stroke-width="0.3" points="227.58,-148.4 228.63,-144.3 225.25,-146.85 227.58,-148.4" />
<text text-anchor="start" x="223.5" y="-155.8" font-family="Times New Roman,serif" font-size="14.00">&gt;</text>
</g>





<g id="node16" class="node">
<title>legend</title>
<polygon fill="none" stroke="black" stroke-width="0" points="288.5,-221 230.5,-221 230.5,-175 288.5,-175 288.5,-221" />
<svg height="42px" version="1.1" viewBox="0 0 72.842187 55.44" width="54px" preserveAspectRatio="xMinYMin meet" x="232.5" y="-219">
 <metadata>
  <rdf:RDF>
   <ns2:Work>
    <dc:type rdf:resource="http://purl.org/dc/dcmitype/StillImage" />
    <dc:date>2022-04-20T09:08:43.067957</dc:date>
    <dc:format>image/svg+xml</dc:format>
    <dc:creator>
     <ns2:Agent>
      <dc:title>Matplotlib v3.4.2, https://matplotlib.org/</dc:title>
     </ns2:Agent>
    </dc:creator>
   </ns2:Work>
  </rdf:RDF>
 </metadata>
 <defs>
  <style type="text/css">*{stroke-linecap:butt;stroke-linejoin:round;}</style>
 </defs>
 <g id="figure_1">
  <g id="patch_1">
   <path d="M 0 55.44  L 72.842187 55.44  L 72.842187 0  L 0 0  z " style="fill:#ffffff;" />
  </g>
  <g id="axes_1">
   <g id="legend_1">
    <g id="patch_2">
     <path d="M 2 47.365312  L 70.842187 47.365312  Q 72.842187 47.365312 72.842187 45.365312  L 72.842187 10.074687  Q 72.842187 8.074687 70.842187 8.074687  L 2 8.074687  Q -0 8.074687 -0 10.074687  L -0 45.365312  Q -0 47.365312 2 47.365312  z " style="fill:#ffffff;opacity:0.8;stroke:#444443;stroke-linejoin:miter;stroke-width:0.5;" />
    </g>
    <g id="patch_3">
     <path d="M 8 23.2325  L 28 23.2325  L 28 16.2325  L 8 16.2325  z " style="fill:#fefebb;stroke:#444443;stroke-linejoin:miter;stroke-width:0.4;" />
    </g>
    <g id="text_1">
     
     <g style="fill:#444443;" transform="translate(31.5 23.2325)scale(0.1 -0.1)">
      <defs>
       <path d="M 525 0  L 525 4581  L 3616 4581  L 3616 4041  L 1131 4041  L 1131 2622  L 3281 2622  L 3281 2081  L 1131 2081  L 1131 0  L 525 0  z " id="ArialMT-46" transform="scale(0.015625)" />
       <path d="M 2694 1069  L 3275 997  Q 3138 488 2766 206  Q 2394 -75 1816 -75  Q 1088 -75 661 373  Q 234 822 234 1631  Q 234 2469 665 2931  Q 1097 3394 1784 3394  Q 2450 3394 2872 2941  Q 3294 2488 3294 1666  Q 3294 1616 3291 1516  L 816 1516  Q 847 969 1125 678  Q 1403 388 1819 388  Q 2128 388 2347 550  Q 2566 713 2694 1069  z M 847 1978  L 2700 1978  Q 2663 2397 2488 2606  Q 2219 2931 1791 2931  Q 1403 2931 1139 2672  Q 875 2413 847 1978  z " id="ArialMT-65" transform="scale(0.015625)" />
       <path d="M 422 0  L 422 3319  L 925 3319  L 925 2853  Q 1081 3097 1340 3245  Q 1600 3394 1931 3394  Q 2300 3394 2536 3241  Q 2772 3088 2869 2813  Q 3263 3394 3894 3394  Q 4388 3394 4653 3120  Q 4919 2847 4919 2278  L 4919 0  L 4359 0  L 4359 2091  Q 4359 2428 4304 2576  Q 4250 2725 4106 2815  Q 3963 2906 3769 2906  Q 3419 2906 3187 2673  Q 2956 2441 2956 1928  L 2956 0  L 2394 0  L 2394 2156  Q 2394 2531 2256 2718  Q 2119 2906 1806 2906  Q 1569 2906 1367 2781  Q 1166 2656 1075 2415  Q 984 2175 984 1722  L 984 0  L 422 0  z " id="ArialMT-6d" transform="scale(0.015625)" />
       <path d="M 2588 409  Q 2275 144 1986 34  Q 1697 -75 1366 -75  Q 819 -75 525 192  Q 231 459 231 875  Q 231 1119 342 1320  Q 453 1522 633 1644  Q 813 1766 1038 1828  Q 1203 1872 1538 1913  Q 2219 1994 2541 2106  Q 2544 2222 2544 2253  Q 2544 2597 2384 2738  Q 2169 2928 1744 2928  Q 1347 2928 1158 2789  Q 969 2650 878 2297  L 328 2372  Q 403 2725 575 2942  Q 747 3159 1072 3276  Q 1397 3394 1825 3394  Q 2250 3394 2515 3294  Q 2781 3194 2906 3042  Q 3031 2891 3081 2659  Q 3109 2516 3109 2141  L 3109 1391  Q 3109 606 3145 398  Q 3181 191 3288 0  L 2700 0  Q 2613 175 2588 409  z M 2541 1666  Q 2234 1541 1622 1453  Q 1275 1403 1131 1340  Q 988 1278 909 1158  Q 831 1038 831 891  Q 831 666 1001 516  Q 1172 366 1500 366  Q 1825 366 2078 508  Q 2331 650 2450 897  Q 2541 1088 2541 1459  L 2541 1666  z " id="ArialMT-61" transform="scale(0.015625)" />
       <path d="M 409 0  L 409 4581  L 972 4581  L 972 0  L 409 0  z " id="ArialMT-6c" transform="scale(0.015625)" />
      </defs>
      <use xlink:href="#ArialMT-46" />
      <use x="61.083984" xlink:href="#ArialMT-65" />
      <use x="116.699219" xlink:href="#ArialMT-6d" />
      <use x="200" xlink:href="#ArialMT-61" />
      <use x="255.615234" xlink:href="#ArialMT-6c" />
      <use x="277.832031" xlink:href="#ArialMT-65" />
     </g>
    </g>
    <g id="patch_4">
     <path d="M 8 37.377812  L 28 37.377812  L 28 30.377812  L 8 30.377812  z " style="fill:#a1dab4;stroke:#444443;stroke-linejoin:miter;stroke-width:0.4;" />
    </g>
    <g id="text_2">
     
     <g style="fill:#444443;" transform="translate(31.5 37.377812)scale(0.1 -0.1)">
      <defs>
       <path d="M 475 0  L 475 4581  L 1388 4581  L 2472 1338  Q 2622 884 2691 659  Q 2769 909 2934 1394  L 4031 4581  L 4847 4581  L 4847 0  L 4263 0  L 4263 3834  L 2931 0  L 2384 0  L 1059 3900  L 1059 0  L 475 0  z " id="ArialMT-4d" transform="scale(0.015625)" />
      </defs>
      <use xlink:href="#ArialMT-4d" />
      <use x="83.300781" xlink:href="#ArialMT-61" />
      <use x="138.916016" xlink:href="#ArialMT-6c" />
      <use x="161.132812" xlink:href="#ArialMT-65" />
     </g>
    </g>
   </g>
  </g>
 </g>
</svg></g>
</g>
</svg>